<svg xmlns="http://www.w3.org/2000/svg" viewBox="0 0 32 32" width="20" height="20" style="border-color: rgba(0,0,0,0);border-width: bpx;border-style: undefined" filter="none">
    
    <g>
    <path d="M25.333 26.667c0 0.736-0.597 1.333-1.333 1.333v0h-18.667c-0.736 0-1.333-0.597-1.333-1.333v0-12h-4l13.769-12.517c0.236-0.215 0.551-0.347 0.897-0.347s0.661 0.132 0.898 0.348l-0.001-0.001 13.769 12.517h-4v12zM14.667 20c1.841 0 3.333-1.492 3.333-3.333s-1.492-3.333-3.333-3.333v0c-1.841 0-3.333 1.492-3.333 3.333s1.492 3.333 3.333 3.333v0z" fill="rgba(255,255,255,1)"></path>
    </g>
  </svg>